<svg width="27" height="26" viewBox="0 0 27 26" fill="none" xmlns="http://www.w3.org/2000/svg">
<path d="M21.6819 3.24675C21.421 3.26573 21.165 3.32692 20.9238 3.42794H20.9206C20.689 3.51975 19.5881 3.98288 17.9143 4.68488L11.9164 7.21094C7.61262 9.02282 3.38193 10.8071 3.38193 10.8071L3.43231 10.7876C3.43231 10.7876 3.14062 10.8834 2.83593 11.0923C2.6477 11.212 2.48573 11.3688 2.35981 11.5529C2.21031 11.7723 2.09006 12.1079 2.13475 12.4548C2.20787 13.0414 2.58812 13.3933 2.86112 13.5874C3.13737 13.7841 3.40062 13.8759 3.40062 13.8759H3.40712L7.37456 15.2124C7.5525 15.7836 8.58356 19.1734 8.83137 19.9542C8.97762 20.4206 9.11981 20.7123 9.29775 20.9349C9.38387 21.0486 9.48462 21.1437 9.60568 21.2201C9.66862 21.2567 9.73573 21.2856 9.80556 21.3062L9.76493 21.2964C9.77712 21.2997 9.78687 21.3094 9.79581 21.3127C9.82831 21.3216 9.85025 21.3249 9.89168 21.3314C10.5197 21.5215 11.0243 21.1315 11.0243 21.1315L11.0527 21.1088L13.3952 18.9759L17.3212 21.9879L17.4106 22.0261C18.2287 22.3852 19.0575 22.1853 19.4954 21.8327C19.9366 21.4776 20.1081 21.0234 20.1081 21.0234L20.1365 20.9503L23.1704 5.408C23.2565 5.0245 23.2784 4.66538 23.1834 4.31682C23.0853 3.96405 22.859 3.66065 22.5488 3.46613C22.2883 3.30779 21.9863 3.23136 21.6819 3.24675ZM21.5998 4.91238C21.5966 4.96357 21.6063 4.95788 21.5836 5.05619V5.06513L18.5781 20.4458C18.5651 20.4677 18.5432 20.5156 18.4831 20.5636C18.4197 20.6139 18.3693 20.6456 18.1052 20.5408L13.3034 16.8594L10.4027 19.5033L11.0121 15.6114L18.8576 8.29888C19.181 7.99825 19.0729 7.93488 19.0729 7.93488C19.0957 7.566 18.5846 7.82682 18.5846 7.82682L8.69162 13.9555L8.68837 13.9393L3.94662 12.3427V12.3394L3.93443 12.337C3.94275 12.3342 3.95089 12.331 3.95881 12.3273L3.98481 12.3143L4.01 12.3053C4.01 12.3053 8.24393 10.5211 12.5477 8.70919C14.7025 7.80163 16.8735 6.88757 18.5432 6.18232C20.2129 5.48113 21.4471 4.96682 21.5169 4.93919C21.5836 4.91319 21.5519 4.91319 21.5998 4.91319V4.91238Z" fill="white"/>
</svg>
