<svg width="25" height="26" viewBox="0 0 25 26" fill="none" xmlns="http://www.w3.org/2000/svg">
<path d="M16.6162 15.2318C16.3395 15.0896 14.9607 14.4143 14.7043 14.3229C14.4479 14.2264 14.26 14.1807 14.0746 14.465C13.8867 14.7469 13.3535 15.374 13.1859 15.5645C13.0234 15.7523 12.8584 15.7752 12.5816 15.6355C10.9363 14.8129 9.85723 14.168 8.77305 12.3068C8.48614 11.8117 9.05997 11.8473 9.59571 10.7783C9.68712 10.5904 9.64141 10.4305 9.57032 10.2883C9.49923 10.1461 8.94063 8.76992 8.70704 8.20879C8.48106 7.66289 8.24747 7.73906 8.07735 7.72891C7.91485 7.71875 7.7295 7.71875 7.54161 7.71875C7.35372 7.71875 7.05157 7.78984 6.79513 8.0666C6.53868 8.34844 5.81505 9.02637 5.81505 10.4025C5.81505 11.7787 6.81798 13.1117 6.95509 13.2996C7.09727 13.4875 8.92794 16.3109 11.7387 17.5271C13.516 18.2939 14.2117 18.36 15.1004 18.2279C15.6412 18.1467 16.7559 17.5525 16.9869 16.8949C17.218 16.2398 17.218 15.6787 17.1494 15.5619C17.0809 15.4375 16.893 15.3664 16.6162 15.2318Z" fill="white"/>
<path d="M21.9914 8.59219C21.4176 7.22871 20.5949 6.00488 19.5463 4.95371C18.4977 3.90508 17.2738 3.07988 15.9078 2.50859C14.5113 1.92207 13.0285 1.625 11.5 1.625H11.4492C9.91055 1.63262 8.42012 1.9373 7.01856 2.53652C5.66524 3.11543 4.45157 3.93809 3.41309 4.98672C2.37462 6.03535 1.55958 7.2541 0.995905 8.6125C0.411921 10.0191 0.11739 11.5146 0.125007 13.0533C0.132624 14.8154 0.554108 16.5648 1.34376 18.1289V21.9883C1.34376 22.6332 1.8668 23.1562 2.51173 23.1562H6.37364C7.9377 23.9459 9.68712 24.3674 11.4492 24.375H11.5025C13.0234 24.375 14.4986 24.0805 15.8875 23.5041C17.2459 22.9379 18.4672 22.1254 19.5133 21.0869C20.5619 20.0484 21.3871 18.8348 21.9635 17.4814C22.5627 16.0799 22.8674 14.5895 22.875 13.0508C22.8826 11.5045 22.583 10.0039 21.9914 8.59219ZM18.1549 19.7133C16.375 21.4754 14.0137 22.4453 11.5 22.4453H11.4568C9.92579 22.4377 8.40489 22.0568 7.06173 21.3408L6.84844 21.2266H3.27344V17.6516L3.15919 17.4383C2.44317 16.0951 2.06231 14.5742 2.05469 13.0432C2.04454 10.5117 3.01192 8.13516 4.78673 6.34512C6.55899 4.55508 8.92794 3.56484 11.4594 3.55469H11.5025C12.7721 3.55469 14.0035 3.80098 15.1639 4.28848C16.2963 4.76328 17.3119 5.44629 18.1854 6.31973C19.0563 7.19062 19.7418 8.20879 20.2166 9.34121C20.7092 10.5143 20.9555 11.7584 20.9504 13.0432C20.9352 15.5721 19.9424 17.941 18.1549 19.7133Z" fill="white"/>
</svg>
